<mxfile host="app.diagrams.net" modified="2021-04-07T02:39:05.327Z" agent="5.0 (Macintosh; Intel Mac OS X 10_15_7) AppleWebKit/537.36 (KHTML, like Gecko) Chrome/88.0.4324.150 Safari/537.36" etag="KXntl9lkFEHMhdrPXoW0" version="14.2.9" type="github">
  <diagram name="Page-1" id="c9db0220-8083-56f3-ca83-edcdcd058819">
    <mxGraphModel dx="1577" dy="1077" grid="1" gridSize="10" guides="1" tooltips="1" connect="1" arrows="1" fold="1" page="1" pageScale="1.5" pageWidth="826" pageHeight="1169" background="#ffffff" math="0" shadow="0">
      <root>
        <mxCell id="0" style=";html=1;" />
        <mxCell id="1" style=";html=1;" parent="0" />
        <mxCell id="wgmif8E4MuDyu1d7C3JI-1" value="" style="whiteSpace=wrap;html=1;rounded=0;shadow=0;labelBackgroundColor=none;strokeColor=#000000;strokeWidth=1;fillColor=none;fontFamily=Verdana;fontSize=12;fontColor=#000000;align=center;comic=1;" vertex="1" parent="1">
          <mxGeometry x="40" y="40" width="1060" height="810" as="geometry" />
        </mxCell>
        <mxCell id="wgmif8E4MuDyu1d7C3JI-2" value="LOGO" style="whiteSpace=wrap;html=1;rounded=0;shadow=0;labelBackgroundColor=none;strokeWidth=1;fontFamily=Verdana;fontSize=28;align=center;comic=1;" vertex="1" parent="1">
          <mxGeometry x="60" y="80" width="190" height="50" as="geometry" />
        </mxCell>
        <mxCell id="wgmif8E4MuDyu1d7C3JI-3" value="Search" style="strokeWidth=1;shadow=0;dashed=0;align=center;html=1;shape=mxgraph.mockup.forms.searchBox;strokeColor=#999999;mainText=;strokeColor2=#008cff;fontColor=#666666;fontSize=17;align=left;spacingLeft=3;rounded=0;labelBackgroundColor=none;comic=1;" vertex="1" parent="1">
          <mxGeometry x="100" y="160" width="920" height="60" as="geometry" />
        </mxCell>
        <mxCell id="wgmif8E4MuDyu1d7C3JI-5" value="ログイン" style="text;html=1;points=[];align=left;verticalAlign=top;spacingTop=-4;fontSize=14;fontFamily=Verdana" vertex="1" parent="1">
          <mxGeometry x="1010" y="60" width="60" height="20" as="geometry" />
        </mxCell>
        <mxCell id="wgmif8E4MuDyu1d7C3JI-9" value="" style="line;strokeWidth=1;html=1;rounded=0;shadow=0;labelBackgroundColor=none;fillColor=none;fontFamily=Verdana;fontSize=14;fontColor=#000000;align=center;comic=1;" vertex="1" parent="1">
          <mxGeometry x="40" y="240" width="1060" height="10" as="geometry" />
        </mxCell>
        <mxCell id="wgmif8E4MuDyu1d7C3JI-17" value="" style="whiteSpace=wrap;html=1;rounded=0;shadow=0;labelBackgroundColor=none;strokeWidth=1;fillColor=none;fontFamily=Verdana;fontSize=12;align=center;comic=1;" vertex="1" parent="1">
          <mxGeometry x="850" y="380" width="230" height="460" as="geometry" />
        </mxCell>
        <mxCell id="wgmif8E4MuDyu1d7C3JI-18" value="" style="whiteSpace=wrap;html=1;rounded=0;shadow=0;labelBackgroundColor=none;strokeWidth=1;fillColor=none;fontFamily=Verdana;fontSize=12;align=center;comic=1;" vertex="1" parent="1">
          <mxGeometry x="850" y="275" width="220" height="85" as="geometry" />
        </mxCell>
        <mxCell id="wgmif8E4MuDyu1d7C3JI-34" value="&lt;font style=&quot;font-size: 24px&quot;&gt;登録数&lt;br&gt;&lt;br&gt;&lt;/font&gt;" style="text;html=1;points=[];align=left;verticalAlign=top;spacingTop=-4;fontSize=14;fontFamily=Verdana" vertex="1" parent="1">
          <mxGeometry x="863" y="300" width="170" height="20" as="geometry" />
        </mxCell>
        <mxCell id="wgmif8E4MuDyu1d7C3JI-35" value="関連履歴" style="text;html=1;points=[];align=left;verticalAlign=top;spacingTop=-4;fontSize=27;fontFamily=Verdana" vertex="1" parent="1">
          <mxGeometry x="863" y="410" width="170" height="20" as="geometry" />
        </mxCell>
        <mxCell id="wgmif8E4MuDyu1d7C3JI-50" value="" style="edgeStyle=orthogonalEdgeStyle;rounded=0;orthogonalLoop=1;jettySize=auto;html=1;" edge="1" parent="1" target="wgmif8E4MuDyu1d7C3JI-40">
          <mxGeometry relative="1" as="geometry">
            <mxPoint x="965" y="380" as="sourcePoint" />
          </mxGeometry>
        </mxCell>
        <mxCell id="wgmif8E4MuDyu1d7C3JI-40" value="" style="text;html=1;points=[];align=left;verticalAlign=top;spacingTop=-4;fontSize=14;fontFamily=Verdana" vertex="1" parent="1">
          <mxGeometry x="880" y="395" width="170" height="20" as="geometry" />
        </mxCell>
        <mxCell id="wgmif8E4MuDyu1d7C3JI-41" value="新規登録" style="text;html=1;points=[];align=left;verticalAlign=top;spacingTop=-4;fontSize=14;fontFamily=Verdana" vertex="1" parent="1">
          <mxGeometry x="935" y="60" width="60" height="20" as="geometry" />
        </mxCell>
        <mxCell id="wgmif8E4MuDyu1d7C3JI-44" value="東京" style="whiteSpace=wrap;html=1;rounded=0;shadow=0;labelBackgroundColor=none;strokeWidth=1;fontFamily=Verdana;fontSize=28;align=center;comic=1;" vertex="1" parent="1">
          <mxGeometry x="90" y="310" width="190" height="50" as="geometry" />
        </mxCell>
        <mxCell id="wgmif8E4MuDyu1d7C3JI-45" value="東京" style="whiteSpace=wrap;html=1;rounded=0;shadow=0;labelBackgroundColor=none;strokeWidth=1;fontFamily=Verdana;fontSize=28;align=center;comic=1;" vertex="1" parent="1">
          <mxGeometry x="310" y="310" width="190" height="50" as="geometry" />
        </mxCell>
        <mxCell id="wgmif8E4MuDyu1d7C3JI-46" value="東京" style="whiteSpace=wrap;html=1;rounded=0;shadow=0;labelBackgroundColor=none;strokeWidth=1;fontFamily=Verdana;fontSize=28;align=center;comic=1;" vertex="1" parent="1">
          <mxGeometry x="560" y="310" width="190" height="50" as="geometry" />
        </mxCell>
        <mxCell id="wgmif8E4MuDyu1d7C3JI-47" value="東京" style="whiteSpace=wrap;html=1;rounded=0;shadow=0;labelBackgroundColor=none;strokeWidth=1;fontFamily=Verdana;fontSize=28;align=center;comic=1;" vertex="1" parent="1">
          <mxGeometry x="90" y="395" width="190" height="50" as="geometry" />
        </mxCell>
        <mxCell id="wgmif8E4MuDyu1d7C3JI-48" value="東京" style="whiteSpace=wrap;html=1;rounded=0;shadow=0;labelBackgroundColor=none;strokeWidth=1;fontFamily=Verdana;fontSize=28;align=center;comic=1;" vertex="1" parent="1">
          <mxGeometry x="310" y="395" width="190" height="50" as="geometry" />
        </mxCell>
        <mxCell id="wgmif8E4MuDyu1d7C3JI-49" value="東京" style="whiteSpace=wrap;html=1;rounded=0;shadow=0;labelBackgroundColor=none;strokeWidth=1;fontFamily=Verdana;fontSize=28;align=center;comic=1;" vertex="1" parent="1">
          <mxGeometry x="560" y="395" width="190" height="50" as="geometry" />
        </mxCell>
        <mxCell id="wgmif8E4MuDyu1d7C3JI-53" value="ジャンル" style="whiteSpace=wrap;html=1;rounded=0;shadow=0;labelBackgroundColor=none;strokeWidth=1;fontFamily=Verdana;fontSize=28;align=center;comic=1;" vertex="1" parent="1">
          <mxGeometry x="90" y="540" width="190" height="50" as="geometry" />
        </mxCell>
        <mxCell id="wgmif8E4MuDyu1d7C3JI-55" value="ジャンル" style="whiteSpace=wrap;html=1;rounded=0;shadow=0;labelBackgroundColor=none;strokeWidth=1;fontFamily=Verdana;fontSize=28;align=center;comic=1;" vertex="1" parent="1">
          <mxGeometry x="310" y="550" width="190" height="50" as="geometry" />
        </mxCell>
        <mxCell id="wgmif8E4MuDyu1d7C3JI-56" value="ジャンル" style="whiteSpace=wrap;html=1;rounded=0;shadow=0;labelBackgroundColor=none;strokeWidth=1;fontFamily=Verdana;fontSize=28;align=center;comic=1;" vertex="1" parent="1">
          <mxGeometry x="570" y="550" width="190" height="50" as="geometry" />
        </mxCell>
        <mxCell id="wgmif8E4MuDyu1d7C3JI-57" value="ジャンル" style="whiteSpace=wrap;html=1;rounded=0;shadow=0;labelBackgroundColor=none;strokeWidth=1;fontFamily=Verdana;fontSize=28;align=center;comic=1;" vertex="1" parent="1">
          <mxGeometry x="570" y="670" width="190" height="50" as="geometry" />
        </mxCell>
        <mxCell id="wgmif8E4MuDyu1d7C3JI-58" value="ジャンル" style="whiteSpace=wrap;html=1;rounded=0;shadow=0;labelBackgroundColor=none;strokeWidth=1;fontFamily=Verdana;fontSize=28;align=center;comic=1;" vertex="1" parent="1">
          <mxGeometry x="320" y="680" width="190" height="50" as="geometry" />
        </mxCell>
        <mxCell id="wgmif8E4MuDyu1d7C3JI-59" value="ジャンル" style="whiteSpace=wrap;html=1;rounded=0;shadow=0;labelBackgroundColor=none;strokeWidth=1;fontFamily=Verdana;fontSize=28;align=center;comic=1;" vertex="1" parent="1">
          <mxGeometry x="90" y="690" width="190" height="50" as="geometry" />
        </mxCell>
        <mxCell id="wgmif8E4MuDyu1d7C3JI-60" value="&lt;font style=&quot;font-size: 24px&quot;&gt;都道府県から&lt;br&gt;&lt;/font&gt;" style="text;html=1;points=[];align=left;verticalAlign=top;spacingTop=-4;fontSize=14;fontFamily=Verdana" vertex="1" parent="1">
          <mxGeometry x="90" y="260" width="170" height="20" as="geometry" />
        </mxCell>
        <mxCell id="wgmif8E4MuDyu1d7C3JI-61" value="&lt;font style=&quot;font-size: 24px&quot;&gt;ジャンルから&lt;br&gt;&lt;/font&gt;" style="text;html=1;points=[];align=left;verticalAlign=top;spacingTop=-4;fontSize=14;fontFamily=Verdana" vertex="1" parent="1">
          <mxGeometry x="80" y="490" width="170" height="20" as="geometry" />
        </mxCell>
        <mxCell id="wgmif8E4MuDyu1d7C3JI-62" value="" style="whiteSpace=wrap;html=1;rounded=0;shadow=0;labelBackgroundColor=none;strokeColor=#000000;strokeWidth=1;fillColor=none;fontFamily=Verdana;fontSize=12;fontColor=#000000;align=center;comic=1;" vertex="1" parent="1">
          <mxGeometry x="50" y="990" width="1060" height="810" as="geometry" />
        </mxCell>
        <mxCell id="wgmif8E4MuDyu1d7C3JI-63" value="LOGO" style="whiteSpace=wrap;html=1;rounded=0;shadow=0;labelBackgroundColor=none;strokeWidth=1;fontFamily=Verdana;fontSize=28;align=center;comic=1;" vertex="1" parent="1">
          <mxGeometry x="70" y="1030" width="190" height="50" as="geometry" />
        </mxCell>
        <mxCell id="wgmif8E4MuDyu1d7C3JI-64" value="Search" style="strokeWidth=1;shadow=0;dashed=0;align=center;html=1;shape=mxgraph.mockup.forms.searchBox;strokeColor=#999999;mainText=;strokeColor2=#008cff;fontColor=#666666;fontSize=17;align=left;spacingLeft=3;rounded=0;labelBackgroundColor=none;comic=1;" vertex="1" parent="1">
          <mxGeometry x="110" y="1110" width="920" height="60" as="geometry" />
        </mxCell>
        <mxCell id="wgmif8E4MuDyu1d7C3JI-65" value="ログイン" style="text;html=1;points=[];align=left;verticalAlign=top;spacingTop=-4;fontSize=14;fontFamily=Verdana" vertex="1" parent="1">
          <mxGeometry x="1020" y="1010" width="60" height="20" as="geometry" />
        </mxCell>
        <mxCell id="wgmif8E4MuDyu1d7C3JI-66" value="" style="line;strokeWidth=1;html=1;rounded=0;shadow=0;labelBackgroundColor=none;fillColor=none;fontFamily=Verdana;fontSize=14;fontColor=#000000;align=center;comic=1;" vertex="1" parent="1">
          <mxGeometry x="50" y="1190" width="1060" height="10" as="geometry" />
        </mxCell>
        <mxCell id="wgmif8E4MuDyu1d7C3JI-71" value="" style="edgeStyle=orthogonalEdgeStyle;rounded=0;orthogonalLoop=1;jettySize=auto;html=1;" edge="1" target="wgmif8E4MuDyu1d7C3JI-72" parent="1">
          <mxGeometry relative="1" as="geometry">
            <mxPoint x="975" y="1330" as="sourcePoint" />
          </mxGeometry>
        </mxCell>
        <mxCell id="wgmif8E4MuDyu1d7C3JI-72" value="" style="text;html=1;points=[];align=left;verticalAlign=top;spacingTop=-4;fontSize=14;fontFamily=Verdana" vertex="1" parent="1">
          <mxGeometry x="890" y="1345" width="170" height="20" as="geometry" />
        </mxCell>
        <mxCell id="wgmif8E4MuDyu1d7C3JI-73" value="新規登録" style="text;html=1;points=[];align=left;verticalAlign=top;spacingTop=-4;fontSize=14;fontFamily=Verdana" vertex="1" parent="1">
          <mxGeometry x="945" y="1010" width="60" height="20" as="geometry" />
        </mxCell>
        <mxCell id="wgmif8E4MuDyu1d7C3JI-76" value="写真" style="whiteSpace=wrap;html=1;rounded=0;shadow=0;labelBackgroundColor=none;strokeWidth=1;fontFamily=Verdana;fontSize=28;align=center;comic=1;" vertex="1" parent="1">
          <mxGeometry x="570" y="1270" width="190" height="120" as="geometry" />
        </mxCell>
        <mxCell id="wgmif8E4MuDyu1d7C3JI-80" value="写真" style="whiteSpace=wrap;html=1;rounded=0;shadow=0;labelBackgroundColor=none;strokeWidth=1;fontFamily=Verdana;fontSize=28;align=center;comic=1;" vertex="1" parent="1">
          <mxGeometry x="100" y="1510" width="190" height="170" as="geometry" />
        </mxCell>
        <mxCell id="wgmif8E4MuDyu1d7C3JI-86" value="&lt;font style=&quot;font-size: 24px&quot;&gt;新規店舗&lt;br&gt;&lt;/font&gt;" style="text;html=1;points=[];align=left;verticalAlign=top;spacingTop=-4;fontSize=14;fontFamily=Verdana" vertex="1" parent="1">
          <mxGeometry x="100" y="1210" width="170" height="20" as="geometry" />
        </mxCell>
        <mxCell id="wgmif8E4MuDyu1d7C3JI-88" value="写真" style="whiteSpace=wrap;html=1;rounded=0;shadow=0;labelBackgroundColor=none;strokeWidth=1;fontFamily=Verdana;fontSize=28;align=center;comic=1;" vertex="1" parent="1">
          <mxGeometry x="815" y="1270" width="190" height="120" as="geometry" />
        </mxCell>
        <mxCell id="wgmif8E4MuDyu1d7C3JI-89" value="写真" style="whiteSpace=wrap;html=1;rounded=0;shadow=0;labelBackgroundColor=none;strokeWidth=1;fontFamily=Verdana;fontSize=28;align=center;comic=1;" vertex="1" parent="1">
          <mxGeometry x="340" y="1270" width="190" height="120" as="geometry" />
        </mxCell>
        <mxCell id="wgmif8E4MuDyu1d7C3JI-90" value="写真" style="whiteSpace=wrap;html=1;rounded=0;shadow=0;labelBackgroundColor=none;strokeWidth=1;fontFamily=Verdana;fontSize=28;align=center;comic=1;" vertex="1" parent="1">
          <mxGeometry x="90" y="1270" width="190" height="120" as="geometry" />
        </mxCell>
        <mxCell id="wgmif8E4MuDyu1d7C3JI-91" value="&lt;font style=&quot;font-size: 24px&quot;&gt;東京のお店一覧&lt;br&gt;&lt;/font&gt;" style="text;html=1;points=[];align=left;verticalAlign=top;spacingTop=-4;fontSize=14;fontFamily=Verdana" vertex="1" parent="1">
          <mxGeometry x="100" y="1440" width="170" height="20" as="geometry" />
        </mxCell>
        <mxCell id="wgmif8E4MuDyu1d7C3JI-92" value="名前&lt;br&gt;ジャンル&lt;br&gt;場所&lt;br&gt;★★★★" style="whiteSpace=wrap;html=1;rounded=0;shadow=0;labelBackgroundColor=none;strokeWidth=1;fontFamily=Verdana;fontSize=28;align=left;comic=1;" vertex="1" parent="1">
          <mxGeometry x="290" y="1510" width="780" height="170" as="geometry" />
        </mxCell>
        <mxCell id="wgmif8E4MuDyu1d7C3JI-93" value="" style="whiteSpace=wrap;html=1;rounded=0;shadow=0;labelBackgroundColor=none;strokeColor=#000000;strokeWidth=1;fillColor=none;fontFamily=Verdana;fontSize=12;fontColor=#000000;align=center;comic=1;" vertex="1" parent="1">
          <mxGeometry x="60" y="1860" width="1060" height="810" as="geometry" />
        </mxCell>
        <mxCell id="wgmif8E4MuDyu1d7C3JI-94" value="LOGO" style="whiteSpace=wrap;html=1;rounded=0;shadow=0;labelBackgroundColor=none;strokeWidth=1;fontFamily=Verdana;fontSize=28;align=center;comic=1;" vertex="1" parent="1">
          <mxGeometry x="80" y="1900" width="190" height="50" as="geometry" />
        </mxCell>
        <mxCell id="wgmif8E4MuDyu1d7C3JI-95" value="Search" style="strokeWidth=1;shadow=0;dashed=0;align=center;html=1;shape=mxgraph.mockup.forms.searchBox;strokeColor=#999999;mainText=;strokeColor2=#008cff;fontColor=#666666;fontSize=17;align=left;spacingLeft=3;rounded=0;labelBackgroundColor=none;comic=1;" vertex="1" parent="1">
          <mxGeometry x="120" y="1980" width="920" height="60" as="geometry" />
        </mxCell>
        <mxCell id="wgmif8E4MuDyu1d7C3JI-96" value="ログイン" style="text;html=1;points=[];align=left;verticalAlign=top;spacingTop=-4;fontSize=14;fontFamily=Verdana" vertex="1" parent="1">
          <mxGeometry x="1030" y="1880" width="60" height="20" as="geometry" />
        </mxCell>
        <mxCell id="wgmif8E4MuDyu1d7C3JI-97" value="" style="line;strokeWidth=1;html=1;rounded=0;shadow=0;labelBackgroundColor=none;fillColor=none;fontFamily=Verdana;fontSize=14;fontColor=#000000;align=center;comic=1;" vertex="1" parent="1">
          <mxGeometry x="60" y="2060" width="1060" height="10" as="geometry" />
        </mxCell>
        <mxCell id="wgmif8E4MuDyu1d7C3JI-98" value="" style="edgeStyle=orthogonalEdgeStyle;rounded=0;orthogonalLoop=1;jettySize=auto;html=1;" edge="1" target="wgmif8E4MuDyu1d7C3JI-99" parent="1">
          <mxGeometry relative="1" as="geometry">
            <mxPoint x="985" y="2200" as="sourcePoint" />
          </mxGeometry>
        </mxCell>
        <mxCell id="wgmif8E4MuDyu1d7C3JI-99" value="" style="text;html=1;points=[];align=left;verticalAlign=top;spacingTop=-4;fontSize=14;fontFamily=Verdana" vertex="1" parent="1">
          <mxGeometry x="900" y="2215" width="170" height="20" as="geometry" />
        </mxCell>
        <mxCell id="wgmif8E4MuDyu1d7C3JI-100" value="新規登録" style="text;html=1;points=[];align=left;verticalAlign=top;spacingTop=-4;fontSize=14;fontFamily=Verdana" vertex="1" parent="1">
          <mxGeometry x="955" y="1880" width="60" height="20" as="geometry" />
        </mxCell>
        <mxCell id="wgmif8E4MuDyu1d7C3JI-102" value="写真" style="whiteSpace=wrap;html=1;rounded=0;shadow=0;labelBackgroundColor=none;strokeWidth=1;fontFamily=Verdana;fontSize=28;align=center;comic=1;" vertex="1" parent="1">
          <mxGeometry x="95" y="2140" width="190" height="170" as="geometry" />
        </mxCell>
        <mxCell id="wgmif8E4MuDyu1d7C3JI-103" value="&lt;font style=&quot;font-size: 24px&quot;&gt;全国の『ジャンル』のお店&lt;br&gt;&lt;/font&gt;" style="text;html=1;points=[];align=left;verticalAlign=top;spacingTop=-4;fontSize=14;fontFamily=Verdana" vertex="1" parent="1">
          <mxGeometry x="110" y="2080" width="170" height="20" as="geometry" />
        </mxCell>
        <mxCell id="wgmif8E4MuDyu1d7C3JI-108" value="名前&lt;br&gt;ジャンル&lt;br&gt;場所&lt;br&gt;★★★★" style="whiteSpace=wrap;html=1;rounded=0;shadow=0;labelBackgroundColor=none;strokeWidth=1;fontFamily=Verdana;fontSize=28;align=left;comic=1;" vertex="1" parent="1">
          <mxGeometry x="285" y="2140" width="780" height="170" as="geometry" />
        </mxCell>
        <mxCell id="wgmif8E4MuDyu1d7C3JI-111" value="写真" style="whiteSpace=wrap;html=1;rounded=0;shadow=0;labelBackgroundColor=none;strokeWidth=1;fontFamily=Verdana;fontSize=28;align=center;comic=1;" vertex="1" parent="1">
          <mxGeometry x="90" y="2340" width="190" height="170" as="geometry" />
        </mxCell>
        <mxCell id="wgmif8E4MuDyu1d7C3JI-112" value="名前&lt;br&gt;ジャンル&lt;br&gt;場所&lt;br&gt;★★★★" style="whiteSpace=wrap;html=1;rounded=0;shadow=0;labelBackgroundColor=none;strokeWidth=1;fontFamily=Verdana;fontSize=28;align=left;comic=1;" vertex="1" parent="1">
          <mxGeometry x="280" y="2340" width="780" height="170" as="geometry" />
        </mxCell>
        <mxCell id="wgmif8E4MuDyu1d7C3JI-126" value="" style="whiteSpace=wrap;html=1;rounded=0;shadow=0;labelBackgroundColor=none;strokeColor=#000000;strokeWidth=1;fillColor=none;fontFamily=Verdana;fontSize=12;fontColor=#000000;align=center;comic=1;" vertex="1" parent="1">
          <mxGeometry x="70" y="2760" width="1060" height="1550" as="geometry" />
        </mxCell>
        <mxCell id="wgmif8E4MuDyu1d7C3JI-127" value="LOGO" style="whiteSpace=wrap;html=1;rounded=0;shadow=0;labelBackgroundColor=none;strokeWidth=1;fontFamily=Verdana;fontSize=28;align=center;comic=1;" vertex="1" parent="1">
          <mxGeometry x="90" y="2800" width="190" height="50" as="geometry" />
        </mxCell>
        <mxCell id="wgmif8E4MuDyu1d7C3JI-128" value="Search" style="strokeWidth=1;shadow=0;dashed=0;align=center;html=1;shape=mxgraph.mockup.forms.searchBox;strokeColor=#999999;mainText=;strokeColor2=#008cff;fontColor=#666666;fontSize=17;align=left;spacingLeft=3;rounded=0;labelBackgroundColor=none;comic=1;" vertex="1" parent="1">
          <mxGeometry x="130" y="2880" width="920" height="60" as="geometry" />
        </mxCell>
        <mxCell id="wgmif8E4MuDyu1d7C3JI-129" value="ログイン" style="text;html=1;points=[];align=left;verticalAlign=top;spacingTop=-4;fontSize=14;fontFamily=Verdana" vertex="1" parent="1">
          <mxGeometry x="1040" y="2780" width="60" height="20" as="geometry" />
        </mxCell>
        <mxCell id="wgmif8E4MuDyu1d7C3JI-130" value="" style="line;strokeWidth=1;html=1;rounded=0;shadow=0;labelBackgroundColor=none;fillColor=none;fontFamily=Verdana;fontSize=14;fontColor=#000000;align=center;comic=1;" vertex="1" parent="1">
          <mxGeometry x="70" y="2960" width="1060" height="10" as="geometry" />
        </mxCell>
        <mxCell id="wgmif8E4MuDyu1d7C3JI-131" value="" style="edgeStyle=orthogonalEdgeStyle;rounded=0;orthogonalLoop=1;jettySize=auto;html=1;" edge="1" target="wgmif8E4MuDyu1d7C3JI-132" parent="1">
          <mxGeometry relative="1" as="geometry">
            <mxPoint x="995" y="3100" as="sourcePoint" />
          </mxGeometry>
        </mxCell>
        <mxCell id="wgmif8E4MuDyu1d7C3JI-132" value="" style="text;html=1;points=[];align=left;verticalAlign=top;spacingTop=-4;fontSize=14;fontFamily=Verdana" vertex="1" parent="1">
          <mxGeometry x="910" y="3115" width="170" height="20" as="geometry" />
        </mxCell>
        <mxCell id="wgmif8E4MuDyu1d7C3JI-133" value="新規登録" style="text;html=1;points=[];align=left;verticalAlign=top;spacingTop=-4;fontSize=14;fontFamily=Verdana" vertex="1" parent="1">
          <mxGeometry x="965" y="2780" width="60" height="20" as="geometry" />
        </mxCell>
        <mxCell id="wgmif8E4MuDyu1d7C3JI-134" value="写真" style="whiteSpace=wrap;html=1;rounded=0;shadow=0;labelBackgroundColor=none;strokeWidth=1;fontFamily=Verdana;fontSize=28;align=center;comic=1;" vertex="1" parent="1">
          <mxGeometry x="240" y="3060" width="730" height="260" as="geometry" />
        </mxCell>
        <mxCell id="wgmif8E4MuDyu1d7C3JI-135" value="&lt;font style=&quot;font-size: 41px&quot;&gt;名前&lt;br&gt;&lt;/font&gt;" style="text;html=1;points=[];align=left;verticalAlign=top;spacingTop=-4;fontSize=14;fontFamily=Verdana" vertex="1" parent="1">
          <mxGeometry x="240" y="2980" width="170" height="20" as="geometry" />
        </mxCell>
        <mxCell id="wgmif8E4MuDyu1d7C3JI-136" value="名前&lt;br&gt;ジャンル&lt;br&gt;場所&lt;br&gt;★★★★" style="whiteSpace=wrap;html=1;rounded=0;shadow=0;labelBackgroundColor=none;strokeWidth=1;fontFamily=Verdana;fontSize=28;align=left;comic=1;" vertex="1" parent="1">
          <mxGeometry x="230" y="3340" width="740" height="170" as="geometry" />
        </mxCell>
        <mxCell id="wgmif8E4MuDyu1d7C3JI-139" value="Google マップ" style="whiteSpace=wrap;html=1;rounded=0;shadow=0;labelBackgroundColor=none;strokeWidth=1;fontFamily=Verdana;fontSize=28;align=center;comic=1;" vertex="1" parent="1">
          <mxGeometry x="225" y="3550" width="740" height="290" as="geometry" />
        </mxCell>
        <mxCell id="wgmif8E4MuDyu1d7C3JI-140" value="ぐるなびURL" style="whiteSpace=wrap;html=1;rounded=0;shadow=0;labelBackgroundColor=none;strokeWidth=1;fontFamily=Verdana;fontSize=28;align=center;comic=1;" vertex="1" parent="1">
          <mxGeometry x="225" y="3900" width="740" height="70" as="geometry" />
        </mxCell>
        <mxCell id="wgmif8E4MuDyu1d7C3JI-141" value="&lt;div&gt;&lt;span&gt;口コミ&lt;/span&gt;&lt;/div&gt;&lt;div&gt;&lt;span&gt;&lt;br&gt;&lt;/span&gt;&lt;/div&gt;&lt;div&gt;&lt;span&gt;&lt;br&gt;&lt;/span&gt;&lt;/div&gt;&lt;div&gt;&lt;span&gt;〜〜〜〜〜〜〜〜〜〜〜〜〜&lt;/span&gt;&lt;/div&gt;&lt;div&gt;&lt;span&gt;&lt;br&gt;&lt;/span&gt;&lt;/div&gt;&lt;div&gt;&lt;span&gt;&lt;br&gt;&lt;/span&gt;&lt;/div&gt;&lt;div&gt;&lt;span&gt;&lt;br&gt;&lt;/span&gt;&lt;/div&gt;" style="whiteSpace=wrap;html=1;rounded=0;shadow=0;labelBackgroundColor=none;strokeWidth=1;fontFamily=Verdana;fontSize=28;align=left;comic=1;" vertex="1" parent="1">
          <mxGeometry x="225" y="3990" width="740" height="290" as="geometry" />
        </mxCell>
      </root>
    </mxGraphModel>
  </diagram>
</mxfile>
